<?xml version="1.0" encoding="UTF-8"?>
<svg width="70px" height="120px" viewBox="0 0 70 120" version="1.1" xmlns="http://www.w3.org/2000/svg" xmlns:xlink="http://www.w3.org/1999/xlink">
    <!-- Generator: Sketch 52.6 (67491) - http://www.bohemiancoding.com/sketch -->
    <title>Path</title>
    <desc>Created with Sketch.</desc>
    <g id="Web-App-Onboarding-1" stroke="none" stroke-width="1" fill="none" fill-rule="evenodd">
        <g id="gcms1" fill="#090E24">
            <g id="Group-6">
                <polygon id="Path" points="55.6963374 15.9997716 41.9090112 24.0002284 28.1216851 31.9995432 14.3332225 40 14.3332225 55.9997716 14.3332225 64.0002284 14.3332225 71.9995432 14.3332225 80 14.3332225 88.0004568 28.1216851 80 41.9090112 71.9995432 41.9090112 64.0002284 41.9090112 55.9997716 28.1216851 64.0002284 28.1216851 48.0004568 41.9090112 40 55.6963374 31.9995432 55.6963374 40 55.6963374 48.0004568 55.6963374 55.9997716 55.6963374 64.0002284 55.6963374 71.9995432 55.6963374 80 41.9090112 88.0004568 28.1216851 95.9997716 14.3332225 104.000228 0.545896296 111.999543 14.3332225 120 28.1216851 111.999543 41.9090112 104.000228 55.6963374 95.9997716 69.4848 88.0004568 69.4848 71.9995432 69.4848 55.9997716 69.4848 40 69.4848 33.8634612 69.4848 24.0002284 69.4848 8.00045684 55.6963374 0"></polygon>
            </g>
        </g>
    </g>
</svg>